<?xml version="1.0" encoding="utf-8"?>
<!-- Generator: Adobe Illustrator 16.0.0, SVG Export Plug-In . SVG Version: 6.00 Build 0)  -->
<!DOCTYPE svg PUBLIC "-//W3C//DTD SVG 1.1//EN" "http://www.w3.org/Graphics/SVG/1.1/DTD/svg11.dtd">
<svg version="1.1" id="Layer_1" xmlns="http://www.w3.org/2000/svg" xmlns:xlink="http://www.w3.org/1999/xlink" x="0px" y="0px"
	 width="200px" height="200px" viewBox="0 0 200 200" enable-background="new 0 0 200 200" xml:space="preserve">
<path fill-rule="evenodd" clip-rule="evenodd" fill="#7FC2FE" d="M104.904,1.118c22.949,15.921,47.591,29.012,72.066,42.299
	c9.912,5.381,14.741,11.375,14.229,23.331c-1.152,26.849-0.785,53.764-1.038,80.656c-8.491-2.407-6.625-9.705-6.78-15.498
	c-0.462-17.368-0.012-34.751-0.261-52.124c-0.07-5.065,1.706-10.649-2.799-14.845c-18.753,4.456-33.127,17.257-49.809,25.543
	c-9.284,4.604-17.523,11.62-28.6,11.931C79.975,95.404,61.889,81.12,41.801,70.598c-5.005-2.622-9.172-7.57-15.727-5.916
	c-5.612,9.35-1.976,19.48-2.547,29.16c-1.078,18.256,1.169,36.605-1.269,54.867c-0.585,1.697-1.576,3.111-2.948,4.257
	c-5.325-3.159-3.444-8.419-3.472-12.896c-0.156-24.85,0.407-49.711-0.314-74.543c-0.284-9.819,3.272-15.241,11.464-20.097
	c24.916-14.761,51.401-26.897,74.735-44.313C102.782,1.118,103.842,1.118,104.904,1.118z"/>
<path fill-rule="evenodd" clip-rule="evenodd" fill="#4396DC" d="M101.577,100.281c25.488-9.393,47.04-26.098,71.049-38.237
	c2.776-1.403,5.687-2.55,8.538-3.813c6.693,3.61,4.658,10.027,4.713,15.536c0.182,20.057,0.049,40.111,0.086,60.171
	c0.009,5.762-0.762,11.658,2.317,17.013c-26.615,17.875-54.021,34.364-83.327,47.515c-4.44-2.594-7.152-6.489-7.305-11.572
	c-0.792-26.458-2.029-52.929,0.868-79.342C98.81,104.896,100.155,102.536,101.577,100.281z"/>
<path fill-rule="evenodd" clip-rule="evenodd" fill="#2A7ABE" d="M101.577,100.281c0.084,26.09,0.181,52.18,0.239,78.27
	c0.016,6.811-0.614,13.699,3.137,19.915c-6.601,2.14-10.964-2.656-15.81-5.401c-23.351-13.235-46.566-26.708-69.832-40.095
	c0.125-0.888,0.205-1.775,0.241-2.671c2.578-25.071,0.318-50.218,1.193-75.312c0.208-5.949-2.333-12.91,4.824-16.974
	C50.907,72.101,76.242,86.192,101.577,100.281z"/>
<path fill-rule="evenodd" clip-rule="evenodd" fill="#4095DB" d="M188.28,150.951c-6.566-5.327-3.273-12.694-3.802-19.179
	c-1.997-24.469,3.739-49.291-3.314-73.541c10.28-3.782,6.367,4.855,6.427,8.205c0.385,21.955,0.111,43.917,0.261,65.877
	c0.037,5.083-1.467,10.531,2.31,15.09C189.534,148.589,188.906,149.769,188.28,150.951z"/>
<path fill-rule="evenodd" clip-rule="evenodd" fill="#2375BC" d="M25.571,58.013c-6.432,13.113-2.07,27.118-3.35,40.655
	c-1.622,17.173,3.305,34.687-2.669,51.634c-0.262-28.689-0.621-57.379-0.671-86.069C18.873,60.622,16.721,52.888,25.571,58.013z"/>
<g>
</g>
<g>
</g>
<g>
</g>
<g>
</g>
<g>
</g>
<g>
</g>
</svg>
